<svg id="Layer_1" enable-background="new 0 0 512 512" viewBox="0 0 512 512" xmlns="http://www.w3.org/2000/svg" xmlns:xlink="http://www.w3.org/1999/xlink">
    <linearGradient id="SVGID_1_" gradientUnits="userSpaceOnUse" x1="256" x2="256" y1="0" y2="512">
        <stop offset="0" stop-color="#01f1fe"></stop>
        <stop offset="1" stop-color="#4fadfe"></stop>
    </linearGradient>
    <g clip-rule="evenodd" fill-rule="evenodd">
    <circle cx="256" cy="256" fill="#009ee4" r="256"></circle>
    <path d="m379.658 201.942c-7.141-7.141-18.719-7.142-25.86 0-7.142 7.141-7.142 18.719 0 25.86l9.912 9.912h-125.896c-10.1 0-18.285 8.187-18.285 18.285 0 10.099 8.186 18.286 18.285 18.286h125.897l-9.912 9.912c-7.142 7.142-7.142 18.719 0 25.859 3.57 3.572 8.249 5.357 12.929 5.357s9.359-1.786 12.929-5.355l41.128-41.128c3.43-3.43 5.357-8.08 5.357-12.93s-1.927-9.501-5.357-12.93zm-46.931 115.491c-10.099 0-18.286 8.188-18.286 18.286v44.853h-174.013v-249.144h174.013v44.853c0 10.099 8.186 18.286 18.286 18.286s18.286-8.188 18.286-18.286v-63.138c0-10.098-8.186-18.286-18.286-18.286h-210.584c-10.099 0-18.285 8.188-18.285 18.286v285.714c0 10.098 8.186 18.285 18.285 18.285h210.584c10.1 0 18.286-8.187 18.286-18.285v-63.138c0-10.098-8.186-18.286-18.286-18.286z" fill="#fff"></path>
    </g>
</svg>